<svg width="127" height="40" viewBox="0 0 127 40" fill="none" xmlns="http://www.w3.org/2000/svg">
<path d="M35.2 12.4001L37.1672 20.0001H39.8829C39.9357 19.8849 39.9912 19.7705 40.0299 19.6481C40.2068 19.0905 40.2112 18.5081 40.0576 17.9605C40.814 17.5169 41.3921 16.8345 41.6508 16.0189C42.2316 14.1861 41.0648 12.2661 39.0513 11.7385C38.8045 11.6741 38.5519 11.6321 38.2985 11.6137C37.7441 10.1121 36.4078 8.91047 34.6892 8.46007C34.2021 8.33287 33.7 8.26807 33.1962 8.26807C30.8141 8.26807 28.6889 9.72367 28.028 11.8081C27.9651 12.0049 27.922 12.2021 27.8876 12.3997H35.2V12.4001Z" fill="#37D0F6"/>
<path d="M26.4 9.60005C27.858 9.60005 29.04 8.52553 29.04 7.20005C29.04 5.87457 27.858 4.80005 26.4 4.80005C24.942 4.80005 23.76 5.87457 23.76 7.20005C23.76 8.52553 24.942 9.60005 26.4 9.60005Z" fill="#37D0F6"/>
<path d="M20.68 6.3999C21.895 6.3999 22.88 5.50447 22.88 4.3999C22.88 3.29533 21.895 2.3999 20.68 2.3999C19.465 2.3999 18.48 3.29533 18.48 4.3999C18.48 5.50447 19.465 6.3999 20.68 6.3999Z" fill="#37D0F6"/>
<path d="M41.8 19.9999H37.1668L35.2 12.3999H12.32L10.3527 19.9999H5.71997V22.7999L9.13261 23.2427L7.91997 25.9999V37.5999H13.2L13.4921 34.4083L34.0265 34.4015L34.32 37.5999H39.6V25.9999L38.3865 23.2427L41.8 22.7999V19.9999ZM14.0615 14.3999H33.4567L35.4239 21.9999H12.0947L14.0615 14.3999ZM12.54 30.3999C11.2037 30.3999 10.12 29.4147 10.12 28.1999C10.12 26.9851 11.2037 25.9999 12.54 25.9999C13.8763 25.9999 14.96 26.9851 14.96 28.1999C14.96 29.4147 13.8763 30.3999 12.54 30.3999ZM29.48 31.9999H18.04L17.6 29.1999H29.92L29.48 31.9999ZM34.98 30.3999C33.6437 30.3999 32.56 29.4147 32.56 28.1999C32.56 26.9851 33.6437 25.9999 34.98 25.9999C36.3163 25.9999 37.4 26.9851 37.4 28.1999C37.4 29.4147 36.3163 30.3999 34.98 30.3999Z" fill="#143151"/>
<path d="M7.91998 26.0001L9.13262 23.2429L5.71998 22.8001V20.0001H10.3527L12.32 12.4001H25.674C25.5442 12.0821 25.3792 11.7737 25.1728 11.4813C24.4191 10.4129 23.2531 9.67527 21.89 9.40607C21.5265 9.33327 21.1534 9.29687 20.7829 9.29687C19.9887 9.29687 19.2121 9.46487 18.5081 9.77807C17.7381 8.52487 16.4019 7.58967 14.8086 7.27327C14.4135 7.19527 14.0105 7.15527 13.6087 7.15527C10.9894 7.15527 8.68294 8.84447 8.12326 11.1717C7.99522 11.7061 7.96266 12.2493 8.02338 12.7841C5.21751 13.5977 3.03291 15.7241 2.39271 18.3913C1.47531 22.2145 3.9195 26.0053 7.91998 27.2101V26.0001Z" fill="#37D0F6"/>
<path d="M55.852 29.168C54.8533 29.168 53.948 28.9533 53.136 28.524C52.3333 28.0853 51.6987 27.4833 51.232 26.718C50.7747 25.9433 50.546 25.0707 50.546 24.1C50.546 23.1293 50.7747 22.2613 51.232 21.496C51.6987 20.7213 52.3333 20.1193 53.136 19.69C53.948 19.2513 54.858 19.032 55.866 19.032C56.7153 19.032 57.4807 19.1813 58.162 19.48C58.8527 19.7787 59.4313 20.208 59.898 20.768L58.442 22.112C57.7793 21.3467 56.958 20.964 55.978 20.964C55.3713 20.964 54.83 21.0993 54.354 21.37C53.878 21.6313 53.5047 22 53.234 22.476C52.9727 22.952 52.842 23.4933 52.842 24.1C52.842 24.7067 52.9727 25.248 53.234 25.724C53.5047 26.2 53.878 26.5733 54.354 26.844C54.83 27.1053 55.3713 27.236 55.978 27.236C56.958 27.236 57.7793 26.8487 58.442 26.074L59.898 27.418C59.4313 27.9873 58.8527 28.4213 58.162 28.72C57.4713 29.0187 56.7013 29.168 55.852 29.168ZM68.6722 21.468V29H66.6002V28.104C66.3108 28.4307 65.9655 28.6827 65.5642 28.86C65.1628 29.028 64.7288 29.112 64.2622 29.112C63.2728 29.112 62.4888 28.8273 61.9102 28.258C61.3315 27.6887 61.0422 26.844 61.0422 25.724V21.468H63.2262V25.402C63.2262 26.6153 63.7348 27.222 64.7522 27.222C65.2748 27.222 65.6948 27.054 66.0122 26.718C66.3295 26.3727 66.4882 25.864 66.4882 25.192V21.468H68.6722ZM74.3355 29.112C73.5328 29.112 72.8095 28.9487 72.1655 28.622C71.5308 28.286 71.0315 27.824 70.6675 27.236C70.3128 26.648 70.1355 25.9807 70.1355 25.234C70.1355 24.4873 70.3128 23.82 70.6675 23.232C71.0315 22.644 71.5308 22.1867 72.1655 21.86C72.8095 21.524 73.5328 21.356 74.3355 21.356C75.1288 21.356 75.8195 21.524 76.4075 21.86C77.0048 22.1867 77.4388 22.658 77.7095 23.274L76.0155 24.184C75.6235 23.4933 75.0588 23.148 74.3215 23.148C73.7522 23.148 73.2808 23.3347 72.9075 23.708C72.5342 24.0813 72.3475 24.59 72.3475 25.234C72.3475 25.878 72.5342 26.3867 72.9075 26.76C73.2808 27.1333 73.7522 27.32 74.3215 27.32C75.0682 27.32 75.6328 26.9747 76.0155 26.284L77.7095 27.208C77.4388 27.8053 77.0048 28.272 76.4075 28.608C75.8195 28.944 75.1288 29.112 74.3355 29.112ZM78.967 21.468H81.151V29H78.967V21.468ZM80.059 20.418C79.6577 20.418 79.331 20.3013 79.079 20.068C78.827 19.8347 78.701 19.5453 78.701 19.2C78.701 18.8547 78.827 18.5653 79.079 18.332C79.331 18.0987 79.6577 17.982 80.059 17.982C80.4603 17.982 80.787 18.094 81.039 18.318C81.291 18.542 81.417 18.822 81.417 19.158C81.417 19.522 81.291 19.8253 81.039 20.068C80.787 20.3013 80.4603 20.418 80.059 20.418ZM96.2148 29L96.2008 23.12L93.3168 27.964H92.2948L89.4248 23.246V29H87.2968V19.2H89.1728L92.8408 25.29L96.4528 19.2H98.3148L98.3428 29H96.2148ZM104.098 29.112C103.305 29.112 102.591 28.9487 101.956 28.622C101.331 28.286 100.841 27.824 100.486 27.236C100.131 26.648 99.9539 25.9807 99.9539 25.234C99.9539 24.4873 100.131 23.82 100.486 23.232C100.841 22.644 101.331 22.1867 101.956 21.86C102.591 21.524 103.305 21.356 104.098 21.356C104.891 21.356 105.601 21.524 106.226 21.86C106.851 22.1867 107.341 22.644 107.696 23.232C108.051 23.82 108.228 24.4873 108.228 25.234C108.228 25.9807 108.051 26.648 107.696 27.236C107.341 27.824 106.851 28.286 106.226 28.622C105.601 28.9487 104.891 29.112 104.098 29.112ZM104.098 27.32C104.658 27.32 105.115 27.1333 105.47 26.76C105.834 26.3773 106.016 25.8687 106.016 25.234C106.016 24.5993 105.834 24.0953 105.47 23.722C105.115 23.3393 104.658 23.148 104.098 23.148C103.538 23.148 103.076 23.3393 102.712 23.722C102.348 24.0953 102.166 24.5993 102.166 25.234C102.166 25.8687 102.348 26.3773 102.712 26.76C103.076 27.1333 103.538 27.32 104.098 27.32ZM114.14 21.356C114.84 21.356 115.474 21.5193 116.044 21.846C116.622 22.1633 117.075 22.616 117.402 23.204C117.728 23.7827 117.892 24.4593 117.892 25.234C117.892 26.0087 117.728 26.69 117.402 27.278C117.075 27.8567 116.622 28.3093 116.044 28.636C115.474 28.9533 114.84 29.112 114.14 29.112C113.104 29.112 112.315 28.7853 111.774 28.132V29H109.688V18.612H111.872V22.266C112.422 21.6593 113.178 21.356 114.14 21.356ZM113.762 27.32C114.322 27.32 114.779 27.1333 115.134 26.76C115.498 26.3773 115.68 25.8687 115.68 25.234C115.68 24.5993 115.498 24.0953 115.134 23.722C114.779 23.3393 114.322 23.148 113.762 23.148C113.202 23.148 112.74 23.3393 112.376 23.722C112.021 24.0953 111.844 24.5993 111.844 25.234C111.844 25.8687 112.021 26.3773 112.376 26.76C112.74 27.1333 113.202 27.32 113.762 27.32ZM119.354 21.468H121.538V29H119.354V21.468ZM120.446 20.418C120.044 20.418 119.718 20.3013 119.466 20.068C119.214 19.8347 119.088 19.5453 119.088 19.2C119.088 18.8547 119.214 18.5653 119.466 18.332C119.718 18.0987 120.044 17.982 120.446 17.982C120.847 17.982 121.174 18.094 121.426 18.318C121.678 18.542 121.804 18.822 121.804 19.158C121.804 19.522 121.678 19.8253 121.426 20.068C121.174 20.3013 120.847 20.418 120.446 20.418ZM123.565 18.612H125.749V29H123.565V18.612Z" fill="#25D0F6"/>
</svg>
